<?xml version="1.0" encoding="utf-8"?>
<!-- Generator: Adobe Illustrator 16.0.0, SVG Export Plug-In . SVG Version: 6.00 Build 0)  -->
<!DOCTYPE svg PUBLIC "-//W3C//DTD SVG 1.1 Tiny//EN" "http://www.w3.org/Graphics/SVG/1.1/DTD/svg11-tiny.dtd">
<svg version="1.1" baseProfile="tiny" id="Layer_1" xmlns="http://www.w3.org/2000/svg" xmlns:xlink="http://www.w3.org/1999/xlink"
	 x="0px" y="0px" width="24px" height="24px" viewBox="0 0 24 24" xml:space="preserve">
<g>
	<path d="M12,11.734c-1.292,0-2.343,1.051-2.343,2.343c0,0.673,0.296,1.316,0.799,1.758v2.171c0,0.852,0.692,1.544,1.544,1.544
		s1.545-0.693,1.545-1.544v-2.171c0.503-0.442,0.798-1.084,0.798-1.758C14.343,12.785,13.292,11.734,12,11.734z M12.909,15.32
		l-0.165,0.12v2.565c0,0.411-0.334,0.745-0.744,0.745s-0.743-0.334-0.743-0.745V15.44l-0.165-0.12
		c-0.403-0.294-0.634-0.748-0.634-1.243c0-0.851,0.691-1.543,1.542-1.543s1.542,0.692,1.542,1.543
		C13.542,14.573,13.312,15.026,12.909,15.32z"/>
	<path d="M17.651,7.913c-0.028-0.006-0.059-0.01-0.089-0.01H6.837V6.582c0-2.847,2.316-5.164,5.163-5.164
		c2.133,0,4.02,1.285,4.805,3.273c0.082,0.206,0.313,0.308,0.52,0.225c0.205-0.081,0.306-0.313,0.225-0.519
		C16.642,2.102,14.464,0.619,12,0.619c-3.288,0-5.964,2.675-5.964,5.963v1.377c-1.082,0.232-1.884,1.193-1.884,2.334v10.698
		c0,1.318,1.073,2.39,2.392,2.39h10.913c1.318,0,2.391-1.072,2.391-2.39V10.293C19.848,9.045,18.889,8.013,17.651,7.913z
		 M19.047,20.991c0,0.877-0.713,1.59-1.59,1.59H6.544c-0.877,0-1.591-0.713-1.591-1.59V10.293c0-0.845,0.66-1.541,1.505-1.585
		L6.54,8.703H17.5c0.014,0.002,0.027,0.004,0.042,0.004c0.844,0.044,1.505,0.741,1.505,1.585V20.991z"/>
</g>
</svg>
